<mxfile host="Electron" modified="2024-11-30T20:30:47.021Z" agent="Mozilla/5.0 (Windows NT 10.0; Win64; x64) AppleWebKit/537.36 (KHTML, like Gecko) draw.io/24.2.5 Chrome/120.0.6099.109 Electron/28.1.0 Safari/537.36" etag="YPhohpp0ymMHv-5Hfh8u" version="24.2.5" type="device">
  <diagram name="Seite-1" id="gg0d4I4RTXI5TzsgscHK">
    <mxGraphModel dx="1418" dy="820" grid="1" gridSize="10" guides="1" tooltips="1" connect="1" arrows="1" fold="1" page="1" pageScale="1" pageWidth="827" pageHeight="1169" math="0" shadow="0">
      <root>
        <mxCell id="0" />
        <mxCell id="1" parent="0" />
        <mxCell id="yQ9dHk1_5HWK5r3XKMvr-2" value="Anlage" style="rounded=0;whiteSpace=wrap;html=1;" parent="1" vertex="1">
          <mxGeometry x="500" y="280" width="120" height="60" as="geometry" />
        </mxCell>
        <mxCell id="yQ9dHk1_5HWK5r3XKMvr-4" value="ID" style="ellipse;whiteSpace=wrap;html=1;" parent="1" vertex="1">
          <mxGeometry x="500" y="140" width="120" height="80" as="geometry" />
        </mxCell>
        <mxCell id="yQ9dHk1_5HWK5r3XKMvr-5" value="Bezeichnung" style="ellipse;whiteSpace=wrap;html=1;" parent="1" vertex="1">
          <mxGeometry x="690" y="270" width="120" height="80" as="geometry" />
        </mxCell>
        <mxCell id="yQ9dHk1_5HWK5r3XKMvr-6" value="Datum" style="ellipse;whiteSpace=wrap;html=1;" parent="1" vertex="1">
          <mxGeometry x="670" y="480" width="120" height="80" as="geometry" />
        </mxCell>
        <mxCell id="yQ9dHk1_5HWK5r3XKMvr-8" value="Uhrzeit" style="ellipse;whiteSpace=wrap;html=1;" parent="1" vertex="1">
          <mxGeometry x="420" y="560" width="120" height="80" as="geometry" />
        </mxCell>
        <mxCell id="yQ9dHk1_5HWK5r3XKMvr-9" value="Wartungsarbeiten" style="rounded=0;whiteSpace=wrap;html=1;" parent="1" vertex="1">
          <mxGeometry x="500" y="490" width="120" height="60" as="geometry" />
        </mxCell>
        <mxCell id="yQ9dHk1_5HWK5r3XKMvr-10" value="ID" style="ellipse;whiteSpace=wrap;html=1;" parent="1" vertex="1">
          <mxGeometry x="340" y="480" width="120" height="80" as="geometry" />
        </mxCell>
        <mxCell id="yQ9dHk1_5HWK5r3XKMvr-11" value="In Planung/&lt;div&gt;Abgeschlossen&lt;/div&gt;" style="ellipse;whiteSpace=wrap;html=1;" parent="1" vertex="1">
          <mxGeometry x="590" y="560" width="120" height="80" as="geometry" />
        </mxCell>
        <mxCell id="yQ9dHk1_5HWK5r3XKMvr-12" value="" style="endArrow=none;html=1;rounded=0;exitX=1;exitY=0.5;exitDx=0;exitDy=0;entryX=0;entryY=0.5;entryDx=0;entryDy=0;" parent="1" source="yQ9dHk1_5HWK5r3XKMvr-10" target="yQ9dHk1_5HWK5r3XKMvr-9" edge="1">
          <mxGeometry width="50" height="50" relative="1" as="geometry">
            <mxPoint x="390" y="440" as="sourcePoint" />
            <mxPoint x="440" y="390" as="targetPoint" />
          </mxGeometry>
        </mxCell>
        <mxCell id="yQ9dHk1_5HWK5r3XKMvr-13" value="" style="endArrow=none;html=1;rounded=0;entryX=0;entryY=0.5;entryDx=0;entryDy=0;" parent="1" target="yQ9dHk1_5HWK5r3XKMvr-6" edge="1">
          <mxGeometry width="50" height="50" relative="1" as="geometry">
            <mxPoint x="620" y="520" as="sourcePoint" />
            <mxPoint x="670" y="470" as="targetPoint" />
          </mxGeometry>
        </mxCell>
        <mxCell id="yQ9dHk1_5HWK5r3XKMvr-14" value="" style="endArrow=none;html=1;rounded=0;exitX=1;exitY=0;exitDx=0;exitDy=0;entryX=0.25;entryY=1;entryDx=0;entryDy=0;" parent="1" source="yQ9dHk1_5HWK5r3XKMvr-8" target="yQ9dHk1_5HWK5r3XKMvr-9" edge="1">
          <mxGeometry width="50" height="50" relative="1" as="geometry">
            <mxPoint x="560" y="670" as="sourcePoint" />
            <mxPoint x="610" y="620" as="targetPoint" />
          </mxGeometry>
        </mxCell>
        <mxCell id="yQ9dHk1_5HWK5r3XKMvr-15" value="" style="endArrow=none;html=1;rounded=0;entryX=0.75;entryY=1;entryDx=0;entryDy=0;exitX=0;exitY=0;exitDx=0;exitDy=0;" parent="1" source="yQ9dHk1_5HWK5r3XKMvr-11" target="yQ9dHk1_5HWK5r3XKMvr-9" edge="1">
          <mxGeometry width="50" height="50" relative="1" as="geometry">
            <mxPoint x="590" y="585" as="sourcePoint" />
            <mxPoint x="640" y="535" as="targetPoint" />
          </mxGeometry>
        </mxCell>
        <mxCell id="yQ9dHk1_5HWK5r3XKMvr-16" value="hat" style="rhombus;whiteSpace=wrap;html=1;" parent="1" vertex="1">
          <mxGeometry x="470" y="380" width="180" height="60" as="geometry" />
        </mxCell>
        <mxCell id="yQ9dHk1_5HWK5r3XKMvr-18" value="1" style="endArrow=none;html=1;rounded=0;entryX=0.5;entryY=1;entryDx=0;entryDy=0;exitX=0.5;exitY=0;exitDx=0;exitDy=0;" parent="1" source="yQ9dHk1_5HWK5r3XKMvr-16" target="yQ9dHk1_5HWK5r3XKMvr-2" edge="1">
          <mxGeometry width="50" height="50" relative="1" as="geometry">
            <mxPoint x="390" y="440" as="sourcePoint" />
            <mxPoint x="440" y="390" as="targetPoint" />
          </mxGeometry>
        </mxCell>
        <mxCell id="yQ9dHk1_5HWK5r3XKMvr-19" value="n" style="endArrow=none;html=1;rounded=0;exitX=0.5;exitY=0;exitDx=0;exitDy=0;entryX=0.5;entryY=1;entryDx=0;entryDy=0;" parent="1" source="yQ9dHk1_5HWK5r3XKMvr-9" target="yQ9dHk1_5HWK5r3XKMvr-16" edge="1">
          <mxGeometry width="50" height="50" relative="1" as="geometry">
            <mxPoint x="390" y="440" as="sourcePoint" />
            <mxPoint x="440" y="390" as="targetPoint" />
          </mxGeometry>
        </mxCell>
        <mxCell id="yQ9dHk1_5HWK5r3XKMvr-20" value="" style="endArrow=none;html=1;rounded=0;entryX=0.5;entryY=1;entryDx=0;entryDy=0;exitX=0.5;exitY=0;exitDx=0;exitDy=0;" parent="1" source="yQ9dHk1_5HWK5r3XKMvr-2" target="yQ9dHk1_5HWK5r3XKMvr-4" edge="1">
          <mxGeometry width="50" height="50" relative="1" as="geometry">
            <mxPoint x="390" y="440" as="sourcePoint" />
            <mxPoint x="440" y="390" as="targetPoint" />
          </mxGeometry>
        </mxCell>
        <mxCell id="yQ9dHk1_5HWK5r3XKMvr-21" value="" style="endArrow=none;html=1;rounded=0;entryX=0;entryY=0.5;entryDx=0;entryDy=0;exitX=1;exitY=0.5;exitDx=0;exitDy=0;" parent="1" source="yQ9dHk1_5HWK5r3XKMvr-2" target="yQ9dHk1_5HWK5r3XKMvr-5" edge="1">
          <mxGeometry width="50" height="50" relative="1" as="geometry">
            <mxPoint x="390" y="440" as="sourcePoint" />
            <mxPoint x="440" y="390" as="targetPoint" />
          </mxGeometry>
        </mxCell>
      </root>
    </mxGraphModel>
  </diagram>
</mxfile>
